<?xml version="1.0" encoding="UTF-8" standalone="no"?>
<!-- Created with Inkscape (http://www.inkscape.org/) -->

<svg
   width="210mm"
   height="297mm"
   viewBox="0 0 210 297"
   version="1.1"
   id="svg5"
   inkscape:export-filename="bitmap.png"
   inkscape:export-xdpi="96"
   inkscape:export-ydpi="96"
   inkscape:version="1.2.2 (732a01da63, 2022-12-09)"
   sodipodi:docname="desenho.svg"
   xmlns:inkscape="http://www.inkscape.org/namespaces/inkscape"
   xmlns:sodipodi="http://sodipodi.sourceforge.net/DTD/sodipodi-0.dtd"
   xmlns="http://www.w3.org/2000/svg"
   xmlns:svg="http://www.w3.org/2000/svg">
  <sodipodi:namedview
     id="namedview7"
     pagecolor="#ffffff"
     bordercolor="#eeeeee"
     borderopacity="1"
     inkscape:showpageshadow="0"
     inkscape:pageopacity="0"
     inkscape:pagecheckerboard="false"
     inkscape:deskcolor="#505050"
     inkscape:document-units="mm"
     showgrid="false"
     inkscape:zoom="0.5852904"
     inkscape:cx="34.171071"
     inkscape:cy="562.11412"
     inkscape:window-width="1600"
     inkscape:window-height="837"
     inkscape:window-x="-8"
     inkscape:window-y="-8"
     inkscape:window-maximized="1"
     inkscape:current-layer="layer1"
     shape-rendering="crispEdges" />
  <defs
     id="defs2" />
  <g
     inkscape:label="Camada 1"
     inkscape:groupmode="layer"
     id="layer1">
    <g
       id="g1379">
      <ellipse
         style="opacity:0.684385;fill:#00ff00;fill-opacity:1;stroke-width:0.264583"
         id="path1302"
         cx="101.71233"
         cy="138.10275"
         rx="82.273972"
         ry="77.979454" />
      <ellipse
         style="opacity:0.684385;fill:#000000;fill-opacity:1;stroke-width:0.241646"
         id="ellipse1356"
         cx="101.71233"
         cy="138.10275"
         rx="76.623283"
         ry="69.842476" />
      <rect
         style="opacity:0.684385;fill:#00ffff;fill-opacity:1;stroke-width:0.202333"
         id="rect1043"
         width="120.46506"
         height="26.710844"
         x="41.136978"
         y="150.0822" />
      <g
         id="g989"
         transform="translate(10.39726,33.90411)">
        <ellipse
           style="opacity:0.498339;fill:#000000;fill-opacity:1;stroke-width:0.184046"
           id="ellipse974"
           cx="90.636978"
           cy="120.92465"
           rx="59.897259"
           ry="3.3904109" />
        <ellipse
           style="fill:#006900;fill-opacity:1;stroke-width:0.264583"
           id="path295"
           cx="91.089035"
           cy="115.04794"
           rx="59.897259"
           ry="7.0068493" />
        <ellipse
           style="fill:#008000;stroke-width:0.264583"
           id="path111"
           cx="62.835613"
           cy="110.30137"
           rx="27.123285"
           ry="4.0684929" />
        <ellipse
           style="fill:#008000;stroke-width:0.264583"
           id="ellipse113"
           cx="109.33119"
           cy="39.434715"
           rx="27.123285"
           ry="4.0684929"
           inkscape:transform-center-x="23.097862"
           transform="rotate(34.500899)"
           inkscape:transform-center-y="-15.875255" />
        <ellipse
           style="fill:#008000;stroke-width:0.264583"
           id="ellipse223"
           cx="83.310059"
           cy="-89.590462"
           rx="27.123285"
           ry="4.0684929"
           inkscape:transform-center-x="0.32182743"
           transform="rotate(89.342073)"
           inkscape:transform-center-y="-28.025547" />
        <ellipse
           style="fill:#008000;stroke-width:0.264583"
           id="ellipse227"
           cx="-47.120388"
           cy="-141.62605"
           rx="27.123285"
           ry="4.0684929"
           inkscape:transform-center-x="-23.819568"
           transform="rotate(148.19722)"
           inkscape:transform-center-y="-14.770347" />
        <ellipse
           style="fill:#008000;stroke-width:0.264583"
           id="ellipse229"
           cx="-116.32832"
           cy="-112.36293"
           rx="27.123285"
           ry="4.0684929"
           inkscape:transform-center-x="-28.01998"
           transform="rotate(178.68151)"
           inkscape:transform-center-y="-0.64489813" />
        <ellipse
           style="fill:#ffff00;stroke-width:0.240319"
           id="ellipse231"
           cx="65.321915"
           cy="110.30137"
           rx="22.376711"
           ry="4.0684929" />
        <ellipse
           style="fill:#ffff00;stroke-width:0.226389"
           id="ellipse233"
           cx="112.16664"
           cy="41.511356"
           rx="23.341169"
           ry="3.461302"
           inkscape:transform-center-x="20.077572"
           transform="matrix(0.83243064,0.55412925,-0.5787238,0.81552361,0,0)"
           inkscape:transform-center-y="-13.36516" />
        <ellipse
           style="fill:#ffff00;stroke-width:0.226389"
           id="ellipse235"
           cx="80.053001"
           cy="-92.375244"
           rx="23.341169"
           ry="3.461302"
           inkscape:transform-center-x="-0.64867196"
           transform="matrix(-0.02689446,0.99963828,-0.99839049,-0.05671363,0,0)"
           inkscape:transform-center-y="-24.110488" />
        <ellipse
           style="fill:#ffff00;stroke-width:0.226389"
           id="ellipse237"
           cx="-52.754742"
           cy="-139.20232"
           rx="23.341169"
           ry="3.461302"
           inkscape:transform-center-x="-21.035508"
           transform="matrix(-0.87214734,0.4892433,-0.46299884,-0.88635889,0,0)"
           inkscape:transform-center-y="-11.800161" />
        <ellipse
           style="fill:#ffff00;stroke-width:0.226389"
           id="ellipse239"
           cx="-116.01163"
           cy="-110.08597"
           rx="23.341169"
           ry="3.461302"
           inkscape:transform-center-x="-24.118539"
           transform="matrix(-0.99997222,0.00745325,0.02239118,-0.99974929,0,0)"
           inkscape:transform-center-y="-0.17976294" />
        <ellipse
           style="fill:#ff7f2a;stroke-width:0.264583"
           id="path293"
           cx="90.184929"
           cy="109.62328"
           rx="3.3904109"
           ry="4.7465754" />
      </g>
      <path
         style="opacity:0.684385;fill:#ffffff;fill-opacity:1;stroke-width:0.264583"
         id="path1242"
         d="m 50.809262,165.39639 c 1.24854,-0.90036 2.331099,-2.31499 3.875199,-2.72719 0.25672,-0.0685 0.526616,-0.0713 0.789924,-0.10695 0.820563,-0.004 0.827963,-0.0613 1.633231,0.17137 1.353044,0.39089 5.192678,2.68594 -0.518861,-0.49743 1.193884,0.72099 2.133901,1.66699 2.85388,2.85378 0.478573,0.94992 0.717431,1.99074 1.439352,2.79182 1.627595,1.45053 3.55347,2.80193 5.732745,3.16596 1.541296,0.21584 2.529817,-0.91374 3.349427,-2.04379 0.414874,-0.60773 0.857549,-1.18866 1.338069,-1.74501 0,0 -3.352837,-2.01612 -3.352837,-2.01612 v 0 c -0.473202,0.5722 -0.917215,1.16323 -1.333412,1.77882 -0.793306,1.06723 -1.706841,1.97353 -3.143515,1.64407 -1.48712,-0.36756 -2.67195,-1.38385 2.166255,1.50945 0.44637,0.26694 -1.472012,-0.79407 -1.113962,-0.79563 -0.854967,-0.68499 -1.078677,-1.72452 -1.506807,-2.69738 -0.681853,-1.24466 -1.56735,-2.28164 -2.795323,-3.02256 -1.353159,-0.80279 -4.198702,-2.83758 -6.221426,-3.26427 -0.809887,-0.17084 -0.906904,-0.112 -1.716005,-0.0645 -0.278593,0.0619 -0.566121,0.0923 -0.83578,0.18575 -1.539967,0.53365 -2.599377,1.9257 -3.965963,2.7503 0,0 3.325809,2.12948 3.325809,2.12948 z" />
      <path
         style="opacity:0.684385;fill:#ffffff;fill-opacity:1;stroke-width:0.264583"
         id="path1244"
         d="m 127.61534,164.27407 c 1.40211,-0.15011 2.87166,-0.15176 4.25785,0.12362 0.71241,0.18474 1.37128,0.47724 2.03044,0.79263 0.19132,0.0915 0.76228,0.36993 0.58019,0.26118 -3.64775,-2.17858 -3.55094,-2.13649 -2.32418,-1.23712 1.03483,0.80661 1.44655,2.01549 2.42488,2.87822 1.20398,-1.11684 2.87959,2.41127 4.57623,2.26889 1.35268,-0.11351 2.52877,-1.22271 3.51942,-2.02621 0.72254,-0.66904 1.47447,-1.30026 2.25251,-1.90279 0,0 -3.29205,-2.0691 -3.29205,-2.0691 v 0 c -0.75933,0.62015 -1.49421,1.26627 -2.22192,1.92345 -0.81028,0.64011 -1.6209,1.34736 -2.64496,1.62281 -0.23803,0.064 -0.48857,0.097 -0.73471,0.0838 -0.20415,-0.0109 -0.76011,-0.27325 -0.59345,-0.15483 0.88634,0.62978 1.85274,1.13855 2.7791,1.70783 -0.46896,-0.31498 -0.56762,-0.32433 -0.91263,-0.78376 -0.51755,-0.6892 -0.78279,-1.56061 -1.5137,-2.08849 -1.98196,-1.71586 -4.50792,-2.9258 -7.03867,-3.61925 -1.44562,-0.20342 -2.93301,-0.22232 -4.38368,-0.0536 0,0 3.23933,2.27273 3.23933,2.27273 z" />
      <path
         style="opacity:0.684385;fill:#ffffff;fill-opacity:1;stroke-width:0.264583"
         id="path1246"
         d="m 152.0263,165.63024 c 0.46338,-0.14231 1.27772,-0.1325 1.68812,-0.36835 0.48122,-0.27654 0.33974,-0.80649 0.96867,-0.55221 -6.2971,-3.36217 -3.53981,-2.17506 -2.70645,-1.32033 0.50859,0.52163 0.85426,1.11784 1.41915,1.59267 3.91536,2.29809 3.81231,3.04106 7.06345,0.98684 0.61314,-0.50521 1.16103,-1.07486 1.6886,-1.66618 0,0 -3.34645,-2.02118 -3.34645,-2.02118 v 0 c -0.4938,0.57086 -1.01378,1.11231 -1.61275,1.57659 -0.63786,0.38233 -1.27613,0.76792 -2.01805,0.91469 -0.17437,0.0345 -0.35382,0.0582 -0.53119,0.0466 -0.16775,-0.0109 -0.63132,-0.20647 -0.49146,-0.1132 0.93655,0.62452 1.93648,1.14829 2.90472,1.72244 -2.11847,-1.29608 -1.93534,-4.17581 -5.57425,-4.041 -0.48694,0.13972 -0.33383,0.0385 -0.72181,0.38653 -0.0916,0.0821 -0.15206,0.2069 -0.26404,0.25777 -0.5146,0.2338 -1.1644,0.19414 -1.70559,0.32554 0,0 3.23933,2.27274 3.23933,2.27274 z" />
      <path
         style="opacity:0.684385;fill:#ffffff;fill-opacity:1;stroke-width:0.264583"
         id="path1248"
         d="m 94.603503,165.91306 c 0.768453,-0.39992 1.340564,-0.11022 2.054166,0.20619 -5.949098,-4.05067 -1.51118,-0.31543 -0.211592,0.71861 1.716286,1.35555 3.649313,2.32693 5.549173,3.42175 0.6786,0.39105 1.24049,0.6637 2.00476,0.83063 0.23624,0.006 0.47503,0.0521 0.70872,0.017 0.81052,-0.12178 2.52055,-0.91063 3.11952,-1.4705 0.18471,-0.17265 0.31548,-0.39518 0.47322,-0.59278 0.66798,-1.08429 0.78285,-1.51704 2.08744,-1.62674 0.68987,-0.0118 0.33286,-0.0295 1.07041,0.0646 0,0 -3.15174,-2.33478 -3.15174,-2.33478 v 0 c -0.78823,-0.0477 -0.40866,-0.0502 -1.13872,-0.003 -1.24399,0.22973 -1.62605,0.82816 -2.2222,1.89498 -0.13486,0.16802 -0.24485,0.35945 -0.40456,0.50405 -0.6514,0.58973 -2.10126,1.20678 -2.98124,1.2443 -0.22148,0.009 -0.44038,-0.0512 -0.66057,-0.0769 -0.77703,-0.25474 -0.54823,-0.14187 -1.266079,-0.52725 -0.223549,-0.12001 -0.882603,-0.50092 -0.664298,-0.37162 5.258937,3.11494 2.121227,1.30417 1.082987,0.47226 -0.425955,-0.33695 -0.870709,-0.65137 -1.278207,-1.01043 -1.742442,-1.5353 -2.465215,-2.71497 -5.217866,-3.60214 -0.799867,-0.32233 -1.495467,-0.32885 -2.277131,0.0915 0,0 3.323807,2.15057 3.323807,2.15057 z" />
    </g>
  </g>
</svg>
